<svg xmlns="http://www.w3.org/2000/svg" version="1.1" xmlns:xlink="http://www.w3.org/1999/xlink" xmlns:svgjs="http://svgjs.dev/svgjs" width="1000" height="750" viewBox="0 0 1000 750"><rect width="1000" height="750" fill="#070d07"></rect><g transform="matrix(0.834,0,0,0.834,82.49454545454546,115.4193570850203)"><svg viewBox="0 0 396 247" data-background-color="#070d07" preserveAspectRatio="xMidYMid meet" height="623" width="1000" xmlns="http://www.w3.org/2000/svg" xmlns:xlink="http://www.w3.org/1999/xlink"><g id="tight-bounds" transform="matrix(1,0,0,1,0.2400000000000091,-0.09999999999999432)"><svg viewBox="0 0 395.52 247.2" height="247.2" width="395.52"><g><svg></svg></g><g><svg viewBox="0 0 395.52 247.2" height="247.2" width="395.52"><g transform="matrix(1,0,0,1,106.27587906976743,47.215199999999996)"><svg viewBox="0 0 182.96824186046513 152.7696" height="152.7696" width="182.96824186046513"><g><svg viewBox="0 0 182.96824186046513 152.7696" height="152.7696" width="182.96824186046513"><g><svg viewBox="0 0 182.96824186046516 152.76960000000003" height="152.7696" width="182.96824186046513"><g><svg viewBox="0 0 182.96824186046516 152.76960000000003" height="152.76960000000003" width="182.96824186046516"><g id="textblocktransform"><svg viewBox="0 0 182.96824186046516 152.76960000000003" height="152.76960000000003" width="182.96824186046516" id="textblock"><g><svg viewBox="0 0 182.96824186046516 152.76960000000003" height="152.76960000000003" width="182.96824186046516"><g transform="matrix(1,0,0,1,0,0)"><svg width="182.96824186046516" viewBox="3 -34.400001525878906 41.20000076293945 34.400001525878906" height="152.76960000000003" data-palette-color="#ffffff"><path d="M44.2 0L33.25 0 33.25-12.4Q33.25-14.7 33.43-17.13 33.6-19.55 33.8-21.2 34-22.85 34.05-23.3L34.05-23.3 33.85-23.3 27.5 0 18.85 0 12.45-23.25 12.25-23.25Q12.3-22.8 12.53-21.18 12.75-19.55 12.95-17.13 13.15-14.7 13.15-12.4L13.15-12.4 13.15 0 3 0 3-34.4 18.6-34.4 23.8-14.55 24-14.55 29.15-34.4 44.2-34.4 44.2 0Z" opacity="1" transform="matrix(1,0,0,1,0,0)" fill="#ffffff" class="wordmark-text-0" data-fill-palette-color="primary" id="text-0"></path></svg></g></svg></g></svg></g></svg></g></svg></g></svg></g></svg></g><g><path d="M215.084 0c30.402 0 58.24 10.976 79.768 29.183l-11.147 0c-19.26-14.022-42.974-22.294-68.621-22.295-25.647 0-49.361 8.272-68.621 22.295l-11.147 0c21.528-18.206 49.366-29.183 79.768-29.183zM338.684 123.6c0 33.334-13.196 63.586-34.648 85.817l0-10.254c17.313-20.361 27.76-46.742 27.76-75.563 0-28.821-10.447-55.202-27.76-75.563v-10.254c21.453 22.231 34.648 52.483 34.648 85.817zM215.084 247.2c-30.402 0-58.24-10.976-79.768-29.183l11.147 0c19.26 14.022 42.974 22.294 68.621 22.295 25.647 0 49.361-8.272 68.621-22.295l11.147 0c-21.528 18.206-49.366 29.183-79.768 29.183z" fill="#ffffff" stroke="transparent" data-fill-palette-color="tertiary"></path></g></svg></g><defs></defs></svg><rect width="395.52" height="247.2" fill="none" stroke="none" visibility="hidden"></rect></g></svg></g></svg>