{
  "accessors": [
    {
      "bufferView": 2,
      "componentType": 5126,
      "count": 31,
      "max": [
        28.121177673339844,
        50.04257583618164,
        27.96717071533203
      ],
      "min": [
        -28.121246337890625,
        50.04257583618164,
        -27.96717071533203
      ],
      "type": "VEC3"
    },
    {
      "bufferView": 2,
      "byteOffset": 372,
      "componentType": 5126,
      "count": 31,
      "max": [
        0.0,
        1.0,
        6.386845825545606e-07
      ],
      "min": [
        0.0,
        1.0,
        -6.386848099282361e-07
      ],
      "type": "VEC3"
    },
    {
      "bufferView": 1,
      "componentType": 5126,
      "count": 31,
      "max": [
        0.36112627387046814,
        0.35327139496803284
      ],
      "min": [
        0.14123648405075073,
        0.13458611071109772
      ],
      "type": "VEC2"
    },
    {
      "bufferView": 0,
      "componentType": 5125,
      "count": 90,
      "type": "SCALAR"
    },
    {
      "bufferView": 2,
      "byteOffset": 744,
      "componentType": 5126,
      "count": 842,
      "max": [
        61.80168533325195,
        8.559629440307617,
        61.80169677734375
      ],
      "min": [
        -61.80170440673828,
        0.0,
        -61.801719665527344
      ],
      "type": "VEC3"
    },
    {
      "bufferView": 2,
      "byteOffset": 10848,
      "componentType": 5126,
      "count": 842,
      "max": [
        0.9898125529289246,
        1.0,
        0.9913803935050964
      ],
      "min": [
        -0.9898125529289246,
        -1.0,
        -0.9913792610168457
      ],
      "type": "VEC3"
    },
    {
      "bufferView": 1,
      "byteOffset": 248,
      "componentType": 5126,
      "count": 842,
      "max": [
        0.935890793800354,
        0.9753590226173401
      ],
      "min": [
        0.001953125,
        0.001953125
      ],
      "type": "VEC2"
    },
    {
      "bufferView": 0,
      "byteOffset": 360,
      "componentType": 5125,
      "count": 4320,
      "type": "SCALAR"
    },
    {
      "bufferView": 2,
      "byteOffset": 20952,
      "componentType": 5126,
      "count": 1391,
      "max": [
        47.04312515258789,
        60.28184127807617,
        29.16138458251953
      ],
      "min": [
        -29.468040466308594,
        5.317607879638672,
        -29.15041160583496
      ],
      "type": "VEC3"
    },
    {
      "bufferView": 2,
      "byteOffset": 37644,
      "componentType": 5126,
      "count": 1391,
      "max": [
        0.9999493956565857,
        1.0,
        0.989586591720581
      ],
      "min": [
        -0.9999496936798096,
        -1.0,
        -0.9999592304229736
      ],
      "type": "VEC3"
    },
    {
      "bufferView": 1,
      "byteOffset": 6984,
      "componentType": 5126,
      "count": 1391,
      "max": [
        0.9957831501960754,
        0.998046875
      ],
      "min": [
        0.3726266622543335,
        0.006040424108505249
      ],
      "type": "VEC2"
    },
    {
      "bufferView": 0,
      "byteOffset": 17640,
      "componentType": 5125,
      "count": 7284,
      "type": "SCALAR"
    },
    {
      "bufferView": 2,
      "byteOffset": 54336,
      "componentType": 5126,
      "count": 785,
      "max": [
        67.40713500976563,
        12.10490894317627,
        50.29090118408203
      ],
      "min": [
        -0.813262939453125,
        4.212244510650635,
        31.12221908569336
      ],
      "type": "VEC3"
    },
    {
      "bufferView": 2,
      "byteOffset": 63756,
      "componentType": 5126,
      "count": 785,
      "max": [
        0.986111581325531,
        0.9997555017471313,
        0.9966397285461426
      ],
      "min": [
        -0.9814417958259583,
        -0.9997805953025818,
        -0.9943086504936218
      ],
      "type": "VEC3"
    },
    {
      "bufferView": 1,
      "byteOffset": 18112,
      "componentType": 5126,
      "count": 785,
      "max": [
        0.997349739074707,
        0.9250596165657043
      ],
      "min": [
        0.006042212247848511,
        0.0060384273529052734
      ],
      "type": "VEC2"
    },
    {
      "bufferView": 0,
      "byteOffset": 46776,
      "componentType": 5125,
      "count": 3642,
      "type": "SCALAR"
    },
    {
      "bufferView": 2,
      "byteOffset": 73176,
      "componentType": 5126,
      "count": 4,
      "max": [
        0.5,
        3.725290298461914e-09,
        0.4999999403953552
      ],
      "min": [
        -0.5,
        -3.725290298461914e-09,
        -0.5000001192092896
      ],
      "type": "VEC3"
    },
    {
      "bufferView": 2,
      "byteOffset": 73224,
      "componentType": 5126,
      "count": 4,
      "max": [
        0.0,
        1.0,
        7.450580596923828e-09
      ],
      "min": [
        0.0,
        1.0,
        7.450580596923828e-09
      ],
      "type": "VEC3"
    },
    {
      "bufferView": 1,
      "byteOffset": 24392,
      "componentType": 5126,
      "count": 4,
      "max": [
        0.9999998807907104,
        1.0
      ],
      "min": [
        -2.9802322387695313e-08,
        -5.960464477539063e-08
      ],
      "type": "VEC2"
    },
    {
      "bufferView": 1,
      "byteOffset": 24424,
      "componentType": 5126,
      "count": 4,
      "max": [
        0.9999998807907104,
        1.0
      ],
      "min": [
        -2.9802322387695313e-08,
        -5.960464477539063e-08
      ],
      "type": "VEC2"
    },
    {
      "bufferView": 0,
      "byteOffset": 61344,
      "componentType": 5125,
      "count": 6,
      "type": "SCALAR"
    }
  ],
  "asset": {
    "extras": {
      "author": "Tiago Lopes (https://sketchfab.com/drobluda)",
      "license": "CC-BY-4.0 (http://creativecommons.org/licenses/by/4.0/)",
      "source": "https://sketchfab.com/3d-models/coffee-cup-a6b4a3eccaf5449d99b25f0e53bf9962",
      "title": "Coffee Cup"
    },
    "generator": "Sketchfab-12.68.0",
    "version": "2.0"
  },
  "bufferViews": [
    {
      "buffer": 0,
      "byteLength": 61368,
      "name": "floatBufferViews",
      "target": 34963
    },
    {
      "buffer": 0,
      "byteLength": 24456,
      "byteOffset": 61368,
      "byteStride": 8,
      "name": "floatBufferViews",
      "target": 34962
    },
    {
      "buffer": 0,
      "byteLength": 73272,
      "byteOffset": 85824,
      "byteStride": 12,
      "name": "floatBufferViews",
      "target": 34962
    }
  ],
  "buffers": [
    {
      "byteLength": 159096,
      "uri": "scene.bin"
    }
  ],
  "extensionsUsed": [
    "KHR_materials_unlit"
  ],
  "images": [
    {
      "uri": "textures/cha_liquido_baseColor.png"
    },
    {
      "uri": "textures/lambert1_baseColor.png"
    },
    {
      "uri": "textures/bake_baseColor.png"
    },
    {
      "uri": "textures/CHA_IMAGE_baseColor.png"
    }
  ],
  "materials": [
    {
      "doubleSided": true,
      "extensions": {
        "KHR_materials_unlit": {}
      },
      "name": "cha_liquido",
      "pbrMetallicRoughness": {
        "baseColorTexture": {
          "index": 0
        },
        "metallicFactor": 0.0
      }
    },
    {
      "doubleSided": true,
      "extensions": {
        "KHR_materials_unlit": {}
      },
      "name": "lambert1",
      "pbrMetallicRoughness": {
        "baseColorTexture": {
          "index": 1
        },
        "metallicFactor": 0.0
      }
    },
    {
      "doubleSided": true,
      "extensions": {
        "KHR_materials_unlit": {}
      },
      "name": "bake",
      "pbrMetallicRoughness": {
        "baseColorTexture": {
          "index": 2
        },
        "metallicFactor": 0.0
      }
    },
    {
      "alphaMode": "BLEND",
      "doubleSided": true,
      "extensions": {
        "KHR_materials_unlit": {}
      },
      "name": "CHA_IMAGE",
      "pbrMetallicRoughness": {
        "baseColorFactor": [
          1.0,
          1.0,
          1.0,
          0.3
        ],
        "baseColorTexture": {
          "index": 3
        },
        "metallicFactor": 0.0
      }
    }
  ],
  "meshes": [
    {
      "name": "cafe_cha_liquido_0",
      "primitives": [
        {
          "attributes": {
            "NORMAL": 1,
            "POSITION": 0,
            "TEXCOORD_0": 2
          },
          "indices": 3,
          "material": 0,
          "mode": 4
        }
      ]
    },
    {
      "name": "prato_low_lambert1_0",
      "primitives": [
        {
          "attributes": {
            "NORMAL": 5,
            "POSITION": 4,
            "TEXCOORD_0": 6
          },
          "indices": 7,
          "material": 1,
          "mode": 4
        }
      ]
    },
    {
      "name": "caneca_low_bake_0",
      "primitives": [
        {
          "attributes": {
            "NORMAL": 9,
            "POSITION": 8,
            "TEXCOORD_0": 10
          },
          "indices": 11,
          "material": 2,
          "mode": 4
        }
      ]
    },
    {
      "name": "colher_low_bake_0",
      "primitives": [
        {
          "attributes": {
            "NORMAL": 13,
            "POSITION": 12,
            "TEXCOORD_0": 14
          },
          "indices": 15,
          "material": 2,
          "mode": 4
        }
      ]
    },
    {
      "name": "cha_imagem_CHA_IMAGE_0",
      "primitives": [
        {
          "attributes": {
            "NORMAL": 17,
            "POSITION": 16,
            "TEXCOORD_0": 18,
            "TEXCOORD_1": 19
          },
          "indices": 20,
          "material": 3,
          "mode": 4
        }
      ]
    }
  ],
  "nodes": [
    {
      "children": [
        1
      ],
      "matrix": [
        1.0,
        0.0,
        0.0,
        0.0,
        0.0,
        2.220446049250313e-16,
        -1.0,
        0.0,
        0.0,
        1.0,
        2.220446049250313e-16,
        0.0,
        0.0,
        0.0,
        0.0,
        1.0
      ],
      "name": "Sketchfab_model"
    },
    {
      "children": [
        2
      ],
      "matrix": [
        0.009999999776482582,
        0.0,
        0.0,
        0.0,
        0.0,
        0.0,
        0.009999999776482582,
        0.0,
        0.0,
        -0.009999999776482582,
        0.0,
        0.0,
        0.0,
        0.0,
        0.0,
        1.0
      ],
      "name": "fbe8f01dc14745f1acdd19f6fb3373a5.fbx"
    },
    {
      "children": [
        3,
        5,
        7,
        9,
        11
      ],
      "name": "RootNode"
    },
    {
      "children": [
        4
      ],
      "name": "cafe"
    },
    {
      "mesh": 0,
      "name": "cafe_cha_liquido_0"
    },
    {
      "children": [
        6
      ],
      "name": "prato_low"
    },
    {
      "mesh": 1,
      "name": "prato_low_lambert1_0"
    },
    {
      "children": [
        8
      ],
      "name": "caneca_low"
    },
    {
      "mesh": 2,
      "name": "caneca_low_bake_0"
    },
    {
      "children": [
        10
      ],
      "name": "colher_low"
    },
    {
      "mesh": 3,
      "name": "colher_low_bake_0"
    },
    {
      "children": [
        12
      ],
      "matrix": [
        40.0,
        0.0,
        0.0,
        0.0,
        0.0,
        -2.2204460403778485e-28,
        9.999999960041972e-13,
        0.0,
        0.0,
        -80.0,
        -1.7763568394002505e-14,
        0.0,
        0.0,
        109.53775024414063,
        0.0,
        1.0
      ],
      "name": "cha_imagem"
    },
    {
      "mesh": 4,
      "name": "cha_imagem_CHA_IMAGE_0"
    }
  ],
  "samplers": [
    {
      "magFilter": 9729,
      "minFilter": 9987,
      "wrapS": 10497,
      "wrapT": 10497
    }
  ],
  "scene": 0,
  "scenes": [
    {
      "name": "Sketchfab_Scene",
      "nodes": [
        0
      ]
    }
  ],
  "textures": [
    {
      "sampler": 0,
      "source": 0
    },
    {
      "sampler": 0,
      "source": 1
    },
    {
      "sampler": 0,
      "source": 2
    },
    {
      "sampler": 0,
      "source": 3
    }
  ]
}
